<svg width="1080" height="1080" viewBox="0 0 1080 1080" fill="none" xmlns="http://www.w3.org/2000/svg">
<rect width="1080" height="1080" rx="100" fill="url(#paint0_linear_9_40)"/>
<path d="M530.513 797.509C469.638 797.509 415.087 783.279 366.862 754.818C318.636 725.566 280.293 686.037 251.831 636.23C224.161 586.423 210.326 530.291 210.326 467.835C210.326 404.588 224.556 348.061 253.017 298.254C282.269 248.447 321.798 209.313 371.605 180.852C421.412 151.601 477.544 136.975 540 136.975C602.456 136.975 658.193 151.601 707.209 180.852C757.016 209.313 796.15 248.447 824.611 298.254C853.863 348.061 868.884 404.588 869.674 467.835L832.912 496.296C832.912 553.218 819.472 604.606 792.592 650.46C766.503 695.524 730.531 731.495 684.677 758.375C639.614 784.465 588.226 797.509 530.513 797.509ZM540 714.498C585.854 714.498 626.569 703.825 662.146 682.479C698.513 661.133 726.974 631.882 747.529 594.724C768.875 556.776 779.548 514.48 779.548 467.835C779.548 420.4 768.875 378.104 747.529 340.946C726.974 303.788 698.513 274.537 662.146 253.191C626.569 231.054 585.854 219.986 540 219.986C494.937 219.986 454.221 231.054 417.855 253.191C381.488 274.537 352.631 303.788 331.285 340.946C309.94 378.104 299.267 420.4 299.267 467.835C299.267 514.48 309.94 556.776 331.285 594.724C352.631 631.882 381.488 661.133 417.855 682.479C454.221 703.825 494.937 714.498 540 714.498ZM823.425 791.58C809.985 791.58 798.917 787.627 790.22 779.721C781.524 771.025 777.176 759.957 777.176 746.517V543.731L799.708 450.047L869.674 467.835V746.517C869.674 759.957 865.326 771.025 856.63 779.721C847.933 787.627 836.865 791.58 823.425 791.58Z" fill="white"/>
<path d="M530.513 797.509C469.638 797.509 415.087 783.279 366.862 754.818C318.636 725.566 280.293 686.037 251.831 636.23C224.161 586.423 210.326 530.291 210.326 467.835C210.326 404.588 224.556 348.061 253.017 298.254C282.269 248.447 321.798 209.313 371.605 180.852C421.412 151.601 477.544 136.975 540 136.975C602.456 136.975 658.193 151.601 707.209 180.852C743.986 201.868 774.944 228.702 800.082 261.355C814.962 280.683 807.16 307.919 785.822 319.737V319.737C764.676 331.449 738.377 323.412 722.988 304.772C706.04 284.245 685.76 267.051 662.146 253.191C626.569 231.054 585.854 219.986 540 219.986C494.937 219.986 454.221 231.054 417.854 253.191C381.488 274.537 352.631 303.788 331.285 340.946C309.94 378.104 299.267 420.4 299.267 467.835C299.267 514.48 309.94 556.776 331.285 594.724C352.631 631.882 381.488 661.133 417.854 682.479C454.221 703.825 494.937 714.498 540 714.498C585.854 714.498 626.569 703.825 662.146 682.479C685.599 668.713 705.764 651.659 722.641 631.316C736.162 615.019 762.078 612.72 775.392 629.187V629.187C785.752 642.001 787.352 660.034 777.841 673.491C753.486 707.949 722.431 736.244 684.677 758.375C639.614 784.465 588.226 797.509 530.513 797.509Z" fill="#FF811C" fill-opacity="0.8"/>
<rect opacity="0.9" x="210.326" y="893.425" width="659.349" height="49.5999" rx="24.8" fill="white"/>
<rect opacity="0.9" x="210.326" y="893.425" width="471.282" height="49.6" rx="24.8" fill="#FF811C" fill-opacity="0.8"/>
<defs>
<linearGradient id="paint0_linear_9_40" x1="0" y1="0" x2="1080" y2="1080" gradientUnits="userSpaceOnUse">
<stop stop-color="#1E252B"/>
<stop offset="1" stop-color="#414449"/>
</linearGradient>
</defs>
</svg>
