<svg width="660" height="808" viewBox="0 0 660 808" fill="none" xmlns="http://www.w3.org/2000/svg">
<path d="M320.513 661.509C259.638 661.509 205.087 647.279 156.862 618.818C108.636 589.566 70.2925 550.037 41.8314 500.23C14.1609 450.423 0.325684 394.291 0.325684 331.835C0.325684 268.588 14.5562 212.061 43.0173 162.254C72.269 112.447 111.798 73.3134 161.605 44.8522C211.412 15.6006 267.544 0.974731 330 0.974731C392.456 0.974731 448.193 15.6006 497.209 44.8522C547.016 73.3134 586.15 112.447 614.611 162.254C643.863 212.061 658.884 268.588 659.674 331.835L622.912 360.296C622.912 417.218 609.472 468.606 582.592 514.46C556.503 559.524 520.531 595.495 474.677 622.375C429.614 648.465 378.226 661.509 320.513 661.509ZM330 578.498C375.854 578.498 416.569 567.825 452.146 546.479C488.513 525.133 516.974 495.882 537.529 458.724C558.875 420.776 569.548 378.48 569.548 331.835C569.548 284.4 558.875 242.104 537.529 204.946C516.974 167.788 488.513 138.537 452.146 117.191C416.569 95.0545 375.854 83.9863 330 83.9863C284.937 83.9863 244.221 95.0545 207.855 117.191C171.488 138.537 142.631 167.788 121.285 204.946C99.9395 242.104 89.2666 284.4 89.2666 331.835C89.2666 378.48 99.9395 420.776 121.285 458.724C142.631 495.882 171.488 525.133 207.855 546.479C244.221 567.825 284.937 578.498 330 578.498ZM613.425 655.58C599.985 655.58 588.917 651.627 580.221 643.721C571.524 635.025 567.176 623.957 567.176 610.517V407.731L589.708 314.047L659.674 331.835V610.517C659.674 623.957 655.326 635.025 646.63 643.721C637.933 651.627 626.865 655.58 613.425 655.58Z" fill="white"/>
<path d="M320.513 661.509C259.638 661.509 205.087 647.279 156.862 618.818C108.636 589.566 70.2925 550.037 41.8314 500.23C14.1609 450.423 0.325684 394.291 0.325684 331.835C0.325684 268.588 14.5562 212.061 43.0173 162.254C72.269 112.447 111.798 73.3134 161.605 44.8522C211.412 15.6006 267.544 0.974731 330 0.974731C392.456 0.974731 448.193 15.6006 497.209 44.8522C533.986 65.8676 564.944 92.702 590.082 125.355C604.962 144.683 597.16 171.919 575.822 183.737C554.676 195.449 528.377 187.412 512.988 168.772C496.04 148.245 475.76 131.051 452.146 117.191C416.569 95.0545 375.854 83.9863 330 83.9863C284.937 83.9863 244.221 95.0545 207.854 117.191C171.488 138.537 142.631 167.788 121.285 204.946C99.9395 242.104 89.2666 284.4 89.2666 331.835C89.2666 378.48 99.9395 420.776 121.285 458.724C142.631 495.882 171.488 525.133 207.854 546.479C244.221 567.825 284.937 578.498 330 578.498C375.854 578.498 416.569 567.825 452.146 546.479C475.599 532.713 495.764 515.659 512.641 495.316C526.162 479.019 552.078 476.72 565.392 493.187C575.753 506.001 577.352 524.034 567.841 537.491C543.486 571.949 512.431 600.244 474.677 622.375C429.614 648.465 378.226 661.509 320.513 661.509Z" fill="#FF811C" fill-opacity="0.8"/>
<rect opacity="0.9" x="0.325562" y="757.425" width="659.349" height="49.5999" rx="24.8" fill="white"/>
<rect opacity="0.9" x="0.325562" y="757.425" width="471.282" height="49.6" rx="24.8" fill="#FF811C" fill-opacity="0.8"/>
</svg>
