<svg width="971" height="276" viewBox="0 0 971 276" fill="none" xmlns="http://www.w3.org/2000/svg">
<path d="M80.42 231.38C68.132 231.38 56.708 229.652 46.148 226.196C35.78 222.548 26.756 217.46 19.076 210.932C11.396 204.404 5.54001 196.82 1.508 188.18C-0.0279951 185.108 -0.123994 182.324 1.22001 179.828C2.75601 177.14 5.25201 175.316 8.70801 174.356C11.396 173.588 13.988 173.876 16.484 175.22C19.172 176.564 21.188 178.58 22.532 181.268C25.412 186.836 29.636 191.828 35.204 196.244C40.772 200.66 47.396 204.116 55.076 206.612C62.756 208.916 71.204 210.068 80.42 210.068C90.596 210.068 99.62 208.436 107.492 205.172C115.364 201.716 121.508 196.82 125.924 190.484C130.532 183.956 132.836 176.084 132.836 166.868C132.836 155.156 128.516 145.076 119.876 136.628C111.236 128.18 97.7 122.804 79.268 120.5C56.804 117.812 39.236 110.9 26.564 99.764C13.892 88.436 7.55601 74.612 7.55601 58.292C7.55601 46.58 10.628 36.404 16.772 27.764C23.108 19.124 31.748 12.5 42.692 7.89198C53.636 3.09198 66.212 0.691986 80.42 0.691986C90.98 0.691986 100.58 2.41998 109.22 5.87597C117.86 9.13997 125.348 13.556 131.684 19.124C138.212 24.5 143.492 30.452 147.524 36.98C149.444 40.052 150.02 43.028 149.252 45.908C148.676 48.788 147.044 50.996 144.356 52.532C141.476 53.876 138.5 54.068 135.428 53.108C132.548 52.148 130.34 50.324 128.804 47.636C125.924 43.22 122.276 39.092 117.86 35.252C113.636 31.22 108.452 28.052 102.308 25.748C96.164 23.444 88.772 22.196 80.132 22.004C64.964 22.004 52.772 25.268 43.556 31.796C34.34 38.132 29.732 47.444 29.732 59.732C29.732 66.26 31.46 72.308 34.916 77.876C38.372 83.252 44.036 87.956 51.908 91.988C59.972 95.828 70.724 98.708 84.164 100.628C108.164 104.084 125.924 111.476 137.444 122.804C149.156 133.94 155.012 148.532 155.012 166.58C155.012 176.948 153.092 186.164 149.252 194.228C145.604 202.292 140.324 209.108 133.412 214.676C126.692 220.052 118.724 224.18 109.508 227.06C100.484 229.94 90.788 231.38 80.42 231.38Z" fill="#1E252B"/>
<path d="M428.404 228.5C420.724 228.5 413.812 226.388 407.668 222.164C401.716 217.94 397.012 212.084 393.556 204.596C390.292 197.108 388.66 188.468 388.66 178.676V14.516C388.66 11.252 389.62 8.65998 391.54 6.73999C393.652 4.62799 396.34 3.57199 399.604 3.57199C402.868 3.57199 405.46 4.62799 407.38 6.73999C409.492 8.65998 410.548 11.252 410.548 14.516V178.676C410.548 186.932 412.18 193.652 415.444 198.836C418.9 204.02 423.22 206.612 428.404 206.612H435.604C438.484 206.612 440.788 207.668 442.516 209.78C444.244 211.7 445.108 214.292 445.108 217.556C445.108 220.82 443.86 223.508 441.364 225.62C439.06 227.54 435.988 228.5 432.148 228.5H428.404Z" fill="#1E252B"/>
<path d="M544.964 230.228C531.332 230.228 519.14 227.444 508.388 221.876C497.636 216.116 489.092 207.764 482.756 196.82C476.612 185.876 473.54 172.532 473.54 156.788V81.908C473.54 78.836 474.596 76.244 476.708 74.132C478.82 72.02 481.412 70.964 484.484 70.964C487.748 70.964 490.436 72.02 492.548 74.132C494.66 76.244 495.716 78.836 495.716 81.908V156.788C495.716 168.692 497.924 178.484 502.34 186.164C506.948 193.844 513.092 199.604 520.772 203.444C528.644 207.284 537.476 209.204 547.268 209.204C556.676 209.204 565.124 207.38 572.612 203.732C580.292 200.084 586.34 195.092 590.756 188.756C595.172 182.42 597.38 175.22 597.38 167.156H613.22C612.644 179.252 609.284 190.1 603.14 199.7C597.188 209.108 589.124 216.596 578.948 222.164C568.772 227.54 557.444 230.228 544.964 230.228ZM608.324 228.5C605.06 228.5 602.372 227.54 600.26 225.62C598.34 223.508 597.38 220.724 597.38 217.268V81.908C597.38 78.644 598.34 76.052 600.26 74.132C602.372 72.02 605.06 70.964 608.324 70.964C611.588 70.964 614.276 72.02 616.388 74.132C618.5 76.052 619.556 78.644 619.556 81.908V217.268C619.556 220.724 618.5 223.508 616.388 225.62C614.276 227.54 611.588 228.5 608.324 228.5Z" fill="#1E252B"/>
<path d="M676.604 233.108C671.996 233.108 668.06 231.476 664.796 228.212C661.532 224.948 659.9 221.012 659.9 216.404C659.9 211.604 661.532 207.572 664.796 204.308C668.252 201.044 672.188 199.412 676.604 199.412C681.212 199.412 685.148 201.14 688.412 204.596C691.676 207.86 693.308 211.796 693.308 216.404C693.308 220.82 691.676 224.756 688.412 228.212C685.34 231.476 681.404 233.108 676.604 233.108Z" fill="#1E252B"/>
<path d="M750.26 228.5C746.804 228.5 744.02 227.54 741.908 225.62C739.988 223.508 739.028 220.724 739.028 217.268V82.196C739.028 78.74 739.988 76.052 741.908 74.132C744.02 72.02 746.804 70.964 750.26 70.964C753.524 70.964 756.116 72.02 758.036 74.132C760.148 76.052 761.204 78.74 761.204 82.196V217.268C761.204 220.724 760.148 223.508 758.036 225.62C756.116 227.54 753.524 228.5 750.26 228.5ZM749.972 41.012C745.748 41.012 742.1 39.476 739.028 36.404C735.956 33.332 734.42 29.588 734.42 25.172C734.42 20.372 735.956 16.628 739.028 13.94C742.292 11.06 746.036 9.62 750.26 9.62C754.292 9.62 757.844 11.06 760.916 13.94C764.18 16.628 765.812 20.372 765.812 25.172C765.812 29.588 764.276 33.332 761.204 36.404C758.132 39.476 754.388 41.012 749.972 41.012Z" fill="#1E252B"/>
<path d="M890.132 229.94C874.772 229.94 861.044 226.484 848.948 219.572C836.852 212.66 827.348 203.156 820.436 191.06C813.524 178.964 810.068 165.236 810.068 149.876C810.068 134.324 813.524 120.5 820.436 108.404C827.348 96.308 836.852 86.804 848.948 79.892C861.044 72.98 874.772 69.524 890.132 69.524C905.492 69.524 919.124 72.98 931.028 79.892C943.124 86.804 952.628 96.308 959.54 108.404C966.452 120.5 970.004 134.324 970.196 149.876C970.196 165.236 966.644 178.964 959.54 191.06C952.628 203.156 943.124 212.66 931.028 219.572C919.124 226.484 905.492 229.94 890.132 229.94ZM890.132 209.78C901.268 209.78 911.252 207.188 920.084 202.004C928.916 196.82 935.828 189.716 940.82 180.692C945.812 171.668 948.308 161.396 948.308 149.876C948.308 138.356 945.812 128.084 940.82 119.06C935.828 109.844 928.916 102.644 920.084 97.46C911.252 92.276 901.268 89.684 890.132 89.684C878.996 89.684 869.012 92.276 860.18 97.46C851.348 102.644 844.34 109.844 839.156 119.06C834.164 128.084 831.668 138.356 831.668 149.876C831.668 161.396 834.164 171.668 839.156 180.692C844.34 189.716 851.348 196.82 860.18 202.004C869.012 207.188 878.996 209.78 890.132 209.78Z" fill="#1E252B"/>
<path d="M268.828 229.94C254.044 229.94 240.796 226.484 229.084 219.572C217.372 212.468 208.06 202.868 201.148 190.772C194.428 178.676 191.068 165.044 191.068 149.876C191.068 134.516 194.524 120.788 201.436 108.692C208.54 96.596 218.14 87.092 230.236 80.18C242.332 73.076 255.964 69.524 271.132 69.524C286.3 69.524 299.836 73.076 311.74 80.18C323.836 87.092 333.34 96.596 340.252 108.692C347.356 120.788 351.004 134.516 351.196 149.876L342.268 156.788C342.268 170.612 339.004 183.092 332.476 194.228C326.14 205.172 317.404 213.908 306.268 220.436C295.324 226.772 282.844 229.94 268.828 229.94ZM271.132 209.78C282.268 209.78 292.156 207.188 300.796 202.004C309.628 196.82 316.54 189.716 321.532 180.692C326.716 171.476 329.308 161.204 329.308 149.876C329.308 138.356 326.716 128.084 321.532 119.06C316.54 110.036 309.628 102.932 300.796 97.748C292.156 92.372 282.268 89.684 271.132 89.684C260.188 89.684 250.3 92.372 241.468 97.748C232.636 102.932 225.628 110.036 220.444 119.06C215.26 128.084 212.668 138.356 212.668 149.876C212.668 161.204 215.26 171.476 220.444 180.692C225.628 189.716 232.636 196.82 241.468 202.004C250.3 207.188 260.188 209.78 271.132 209.78ZM339.964 228.5C336.7 228.5 334.012 227.54 331.9 225.62C329.788 223.508 328.732 220.82 328.732 217.556V168.308L334.204 145.556L351.196 149.876V217.556C351.196 220.82 350.14 223.508 348.028 225.62C345.916 227.54 343.228 228.5 339.964 228.5Z" fill="#1E252B"/>
<path d="M268.828 229.94C254.044 229.94 240.796 226.484 229.084 219.572C217.372 212.468 208.06 202.868 201.148 190.772C194.428 178.676 191.068 165.044 191.068 149.876C191.068 134.516 194.524 120.788 201.436 108.692C208.54 96.596 218.14 87.092 230.236 80.18C242.332 73.076 255.964 69.524 271.132 69.524C286.3 69.524 299.836 73.076 311.74 80.18C320.318 85.0816 327.592 91.2867 333.563 98.7953C337.657 103.943 335.546 111.298 329.793 114.485C325.231 117.011 319.551 115.291 316.318 111.199C312.056 105.804 306.882 101.32 300.796 97.748C292.156 92.372 282.268 89.684 271.132 89.684C260.188 89.684 250.3 92.372 241.468 97.748C232.636 102.932 225.628 110.036 220.444 119.06C215.26 128.084 212.668 138.356 212.668 149.876C212.668 161.204 215.26 171.476 220.444 180.692C225.628 189.716 232.636 196.82 241.468 202.004C250.3 207.188 260.188 209.78 271.132 209.78C282.268 209.78 292.156 207.188 300.796 202.004C306.668 198.557 311.692 194.262 315.867 189.117C318.927 185.345 324.87 184.82 327.924 188.597C330.666 191.989 331.094 196.766 328.547 200.307C322.685 208.456 315.259 215.166 306.268 220.436C295.324 226.772 282.844 229.94 268.828 229.94Z" fill="#FF811C" fill-opacity="0.8"/>
<rect opacity="0.9" x="0.0415955" y="253.109" width="969.917" height="21.96" rx="10.98" fill="#1E252B"/>
<rect opacity="0.9" x="0.0415955" y="253.108" width="693.266" height="21.9621" rx="10.981" fill="#FF811C" fill-opacity="0.8"/>
</svg>
